<svg width="127" height="67" viewBox="0 0 127 67" fill="none" xmlns="http://www.w3.org/2000/svg">
<path fill-rule="evenodd" clip-rule="evenodd" d="M55.6157 2.10182C53.5822 3.41492 51.8362 4.69391 51.061 5.43824C48.0187 8.3591 45.9583 13.1257 45.4399 18.4424C45.244 20.4507 45.2587 20.662 45.9869 26.3265C46.3986 29.5278 46.795 32.2184 46.8679 32.3056C46.9406 32.3929 49.5245 30.0865 52.6096 27.1802C55.6948 24.274 58.3974 21.7295 58.6154 21.5258L59.0118 21.1555L62.3902 24.6646L65.7686 28.1737V29.664C65.7686 30.4838 65.7108 31.1545 65.6402 31.1545C65.5694 31.1545 64.0516 29.6381 62.2672 27.7847L59.0227 24.4149L56.5381 26.8375C55.1718 28.1701 52.5504 30.7167 50.7128 32.4968C48.8752 34.2769 47.3689 35.8603 47.3655 36.0153C47.3481 36.7797 48.3313 44.5074 48.4459 44.5074C48.5187 44.5074 50.9256 43.2905 53.7946 41.8031L59.0111 39.0988L64.2111 41.8031C67.0709 43.2905 69.4733 44.5074 69.5496 44.5074C69.672 44.5074 72.5919 24.9766 72.6149 24.0033C72.6219 23.7094 71.0354 22.2967 65.8772 18.0035C62.1665 14.9152 59.071 12.3883 58.9984 12.3883C58.9259 12.3883 57.3906 13.6265 55.5867 15.14C53.783 16.6536 51.9777 18.1625 51.575 18.4934L50.843 19.095V17.4586V15.8221L54.8637 12.4738C57.0749 10.6322 58.9839 9.14909 59.1055 9.17796C59.2274 9.20683 62.3079 11.7318 65.9515 14.7889C69.5951 17.846 72.6175 20.3045 72.6679 20.2522C72.8413 20.072 72.3432 16.316 71.9232 14.635C71.0226 11.0313 69.205 7.64508 67.0218 5.50393C66.2488 4.74552 64.6483 3.57714 62.4707 2.18104C60.6234 0.996776 59.0673 0.015337 59.0127 0.000179689C58.958 -0.0149777 57.4293 0.930733 55.6157 2.10182ZM41.8541 24.1673C40.1639 25.0768 38.937 26.8619 38.3433 29.2752C38.0212 30.5847 38 31.299 38 40.8372C38 46.4286 38.0585 51.0018 38.1302 51C38.2018 50.998 40.1738 49.7145 42.5124 48.1475C45.792 45.9503 46.7586 45.2184 46.7388 44.9481C46.7247 44.7553 46.0609 39.9084 45.2636 34.1771L43.814 23.7568L43.2066 23.7615C42.8725 23.7642 42.2639 23.9468 41.8541 24.1673ZM72.7364 34.1771C71.9391 39.9084 71.2753 44.7553 71.2612 44.9481C71.2414 45.2184 72.208 45.9503 75.4876 48.1475C77.8262 49.7145 79.7982 50.998 79.8698 51C79.9415 51.0018 80 46.4286 80 40.8372C80 31.3692 79.9769 30.5769 79.6637 29.3033C79.2244 27.5176 78.7634 26.6084 77.7119 25.4523C76.763 24.4091 75.6232 23.7561 74.7519 23.7565L74.186 23.7568L72.7364 34.1771ZM0.166583 63.9437C3.5476 64.1408 5.83657 64.2394 7.0335 64.2394C7.31731 64.2394 7.53942 64.154 7.69983 63.9831C7.87258 63.7991 7.95896 63.5559 7.95896 63.2535V61.4789H3.70184C2.4062 61.4789 1.46223 61.17 0.869933 60.5521C0.289978 59.9211 0 58.9155 0 57.5352V56.9437C0 55.5634 0.289978 54.5643 0.869933 53.9465C1.46223 53.3155 2.4062 53 3.70184 53H10.1986V55.7606H4.44221C3.70184 55.7606 3.33166 56.1549 3.33166 56.9437V57.338C3.33166 58.1268 3.70184 58.5211 4.44221 58.5211H7.77387C8.98314 58.5211 9.87158 58.8235 10.4392 59.4282C11.0068 60.0329 11.2906 60.9793 11.2906 62.2676V63.2535C11.2906 64.5418 11.0068 65.4883 10.4392 66.093C9.87158 66.6977 8.98314 67 7.77387 67C7.14455 67 6.47822 66.9869 5.77487 66.9606L4.07203 66.8817C2.8134 66.816 1.51159 66.7239 0.166583 66.6056V63.9437ZM26.8044 66.8028C26.419 66.8641 26.3287 66.9111 26.2658 66.9438C26.1939 66.9813 26.1579 67 25.7561 67C25.0158 67 24.3926 66.7305 23.8867 66.1916C23.3808 65.6526 23.1278 64.9362 23.1278 64.0423V53H26.3669V63.5493C26.3669 63.7465 26.4286 63.9108 26.552 64.0423C26.6101 64.1041 26.6019 64.1514 26.5962 64.1842C26.5898 64.221 26.5866 64.2394 26.6845 64.2394H26.8044V66.8028ZM32.1859 66.9438C32.2487 66.9111 32.339 66.8641 32.7245 66.8028V64.2394H32.6046C32.5066 64.2394 32.5098 64.221 32.5162 64.1842C32.5219 64.1514 32.5302 64.1041 32.4721 64.0423C32.3487 63.9108 32.287 63.7465 32.287 63.5493V53H29.0479V64.0423C29.0479 64.9362 29.3008 65.6526 29.8068 66.1916C30.3127 66.7305 30.9358 67 31.6762 67C32.078 67 32.1139 66.9813 32.1859 66.9438ZM51.3414 59.2113C50.564 59.2113 49.7619 59.4085 48.9352 59.8028V66.8028H45.696V59.221C45.696 57.6366 46.9805 56.3521 48.565 56.3521L48.7501 57.6338C48.9993 57.4022 49.1966 57.1979 49.3677 57.0207C49.9249 56.4435 50.2036 56.1549 51.0911 56.1549H51.924V59.2113H51.3414ZM75.9898 66.1718C76.5204 65.6066 76.7857 64.831 76.7857 63.8451V59.3099C76.7857 58.3239 76.5204 57.5549 75.9898 57.0028C75.4716 56.4376 74.7497 56.1549 73.8242 56.1549H69.5671C68.6417 56.1549 67.9136 56.4376 67.383 57.0028C66.8648 57.5549 66.6057 58.3239 66.6057 59.3099V63.8451C66.6057 64.831 66.8648 65.6066 67.383 66.1718C67.9136 66.7239 68.6417 67 69.5671 67H73.8242C74.7497 67 75.4716 66.7239 75.9898 66.1718ZM72.8062 58.8169C73.2998 58.8169 73.5466 59.0798 73.5466 59.6056V63.5493C73.5466 64.0751 73.2998 64.338 72.8062 64.338H70.5851C70.0916 64.338 69.8448 64.0751 69.8448 63.5493V59.6056C69.8448 59.0798 70.0916 58.8169 70.5851 58.8169H72.8062ZM86.7785 66.6056C84.471 66.8686 82.435 67 80.6705 67C79.8314 67 79.1589 66.7305 78.653 66.1916C78.1471 65.6526 77.8941 64.9362 77.8941 64.0423V59.507C77.8941 58.5211 78.1532 57.7521 78.6715 57.2C79.2021 56.6347 79.9301 56.3521 80.8556 56.3521H86.7785V59.0141H81.8736C81.38 59.0141 81.1332 59.277 81.1332 59.8028V63.6479C81.1332 63.8451 81.1949 64.0094 81.3183 64.1408C81.4417 64.2723 81.596 64.338 81.781 64.338C82.8916 64.338 84.5574 64.2394 86.7785 64.0423V66.6056ZM91.1246 66.8028V62.662H92.5128L94.6413 66.8028H98.0655L95.2891 61.3803L98.0655 56.3521H94.6413L92.6053 60H91.1246V53H87.8855V66.8028H91.1246ZM16.1941 58.6197C15.7005 58.6197 15.4537 58.8826 15.4537 59.4085V60.493V62.9577V63.7465C15.4537 63.9437 15.5154 64.108 15.6388 64.2394C15.7622 64.3709 15.9165 64.4366 16.1016 64.4366C17.3232 64.4366 19.1124 64.338 21.4692 64.1408V66.6056C19.0877 66.8686 16.9283 67 14.991 67C14.1519 67 13.4794 66.7305 12.9735 66.1916C12.4676 65.6526 12.2146 64.9362 12.2146 64.0423V59.3099C12.2146 58.3239 12.4738 57.5549 12.992 57.0028C13.5226 56.4376 14.2506 56.1549 15.1761 56.1549H18.8779C19.8034 56.1549 20.5253 56.4376 21.0435 57.0028C21.5741 57.5549 21.8394 58.3239 21.8394 59.3099V59.7649C21.8394 61.5283 20.4099 62.9577 18.6466 62.9577L18.6003 60.493V59.4085C18.6003 58.8826 18.3535 58.6197 17.8599 58.6197H16.1941ZM38.022 59.4085C38.022 58.8826 38.2687 58.6197 38.7623 58.6197H40.4282C40.9217 58.6197 41.1685 58.8826 41.1685 59.4085V60.493L41.2148 62.9577C42.9781 62.9577 44.4076 61.5283 44.4076 59.7649V59.3099C44.4076 58.3239 44.1423 57.5549 43.6117 57.0028C43.0935 56.4376 42.3716 56.1549 41.4462 56.1549H37.7443C36.8189 56.1549 36.0908 56.4376 35.5602 57.0028C35.042 57.5549 34.7828 58.3239 34.7828 59.3099V64.0423C34.7828 64.9362 35.0358 65.6526 35.5417 66.1916C36.0476 66.7305 36.7201 67 37.5592 67C39.4965 67 41.6559 66.8686 44.0374 66.6056V64.1408C41.6806 64.338 39.8914 64.4366 38.6698 64.4366C38.4847 64.4366 38.3304 64.3709 38.207 64.2394C38.0837 64.108 38.022 63.9437 38.022 63.7465V62.9577V60.493V59.4085ZM101.487 59.4085V60.493V62.9577V63.7465C101.487 63.9437 101.549 64.108 101.672 64.2394C101.795 64.3709 101.95 64.4366 102.135 64.4366C103.356 64.4366 105.145 64.338 107.502 64.1408V66.6056C105.121 66.8686 102.961 67 101.024 67C100.185 67 99.5125 66.7305 99.0066 66.1916C98.5007 65.6526 98.2477 64.9362 98.2477 64.0423V59.3099C98.2477 58.3239 98.5069 57.5549 99.0251 57.0028C99.5557 56.4376 100.284 56.1549 101.209 56.1549H104.911C105.837 56.1549 106.558 56.4376 107.077 57.0028C107.607 57.5549 107.873 58.3239 107.873 59.3099V59.7649C107.873 61.5283 106.443 62.9577 104.68 62.9577L104.633 60.493V59.4085C104.633 58.8826 104.387 58.6197 103.893 58.6197H102.227C101.734 58.6197 101.487 58.8826 101.487 59.4085ZM112.493 67C113.64 67 115.803 66.9343 117 66.8028V64.2394H113.603C113.418 64.2394 113.264 64.1737 113.14 64.0423C113.017 63.9108 112.955 63.7465 112.955 63.5493V59.0141H116.26V56.3521H112.955V53.9859H109.756L109.716 56.3521V59.0141V64.0423C109.716 64.9362 109.969 65.6526 110.475 66.1916C110.981 66.7305 111.653 67 112.493 67ZM54.0245 53H61.7983C63.094 53 64.0318 53.3155 64.6117 53.9465C65.204 54.5643 65.5002 55.5634 65.5002 56.9437V58.7183C65.5002 59.8094 65.3274 60.6573 64.9819 61.262C64.6488 61.8667 64.112 62.2676 63.3716 62.4648L65.6853 66.8028H62.076L59.9474 62.662H57.3561V66.8028H54.0245V57.5336H57.3561V59.9014H61.058C61.7983 59.9014 62.1685 59.507 62.1685 58.7183V56.9437C62.1685 56.1549 61.7983 55.7606 61.058 55.7606H57.3561H54.0245V53ZM119.32 56.6001H120.4V53.2401H121.66V52.4001H118.06V53.2401H119.32V56.6001ZM125.021 55.7601L125.861 54.2601V56.6001H126.941V52.4001H125.801L124.601 54.6201L123.401 52.4001H122.261V56.6001H123.341V54.2601L124.181 55.7601H125.021Z" fill="white"/>
</svg>
